<?xml version="1.0" encoding="iso-8859-1"?>
<!-- Generator: Adobe Illustrator 19.0.0, SVG Export Plug-In . SVG Version: 6.00 Build 0)  -->
<svg version="1.1" id="Capa_1" xmlns="http://www.w3.org/2000/svg" xmlns:xlink="http://www.w3.org/1999/xlink" x="0px" y="0px"
	 viewBox="0 0 512 512" style="enable-background:new 0 0 512 512;" xml:space="preserve">
<g>
	<g>
		<path d="M426.667,0H107.669C48.213,0,0,48.213,0,107.669v382.997c0,8.384,4.885,15.957,12.523,19.413
			c7.573,3.456,16.533,2.155,22.848-3.349L192,369.685l156.629,137.045c3.947,3.456,8.981,5.269,14.037,5.269
			c2.987,0,5.995-0.619,8.811-1.92c7.637-3.456,12.523-11.029,12.523-19.413V256h106.667c11.776,0,21.333-9.557,21.333-21.333
			V85.333C512,38.208,473.792,0,426.667,0z M469.333,213.333H384v-128c0-23.531,19.136-42.667,42.667-42.667
			s42.667,19.136,42.667,42.667V213.333z"/>
	</g>
</g>
<g>
</g>
<g>
</g>
<g>
</g>
<g>
</g>
<g>
</g>
<g>
</g>
<g>
</g>
<g>
</g>
<g>
</g>
<g>
</g>
<g>
</g>
<g>
</g>
<g>
</g>
<g>
</g>
<g>
</g>
</svg>
